<?xml version="1.0" encoding="UTF-8" standalone="no"?>
<!DOCTYPE svg PUBLIC "-//W3C//DTD SVG 1.1//EN" "http://www.w3.org/Graphics/SVG/1.1/DTD/svg11.dtd">
<svg width="100%" height="100%" viewBox="0 0 533 120" version="1.1" xmlns="http://www.w3.org/2000/svg" xmlns:xlink="http://www.w3.org/1999/xlink" xml:space="preserve" xmlns:serif="http://www.serif.com/" style="fill-rule:evenodd;clip-rule:evenodd;stroke-linejoin:round;stroke-miterlimit:2;">
    <g transform="matrix(1.35995,0,0,1.35995,-12.9713,113.98)">
        <g>
            <path d="M36.831,-17.06C36.831,-16.42 35.454,-15.95 32.701,-15.65C29.948,-15.35 27.334,-15.2 24.861,-15.2C22.388,-15.2 20.788,-15.35 20.061,-15.65C19.334,-15.95 18.971,-16.42 18.971,-17.06L18.971,-57.63C18.971,-58.743 19.524,-59.533 20.631,-60C21.744,-60.467 23.838,-60.7 26.911,-60.7L50.651,-60.7C51.544,-60.7 51.991,-59.09 51.991,-55.87C51.991,-52.65 51.791,-50.197 51.391,-48.51C50.984,-46.823 50.461,-45.98 49.821,-45.98L36.831,-46.62L36.831,-42.27C42.504,-42.53 46.301,-42.66 48.221,-42.66C48.861,-42.66 49.298,-42.317 49.531,-41.63C49.764,-40.95 49.881,-39.64 49.881,-37.7C49.881,-35.753 49.668,-33.897 49.241,-32.13C48.814,-30.357 48.218,-29.47 47.451,-29.47L36.831,-29.86L36.831,-17.06ZM75.871,-14.62C72.671,-14.62 69.918,-14.9 67.611,-15.46C65.304,-16.013 63.214,-16.993 61.341,-18.4C57.454,-21.213 55.511,-26.46 55.511,-34.14C55.511,-40.967 57.498,-45.853 61.471,-48.8C65.178,-51.533 69.978,-52.9 75.871,-52.9C78.384,-52.9 80.538,-52.78 82.331,-52.54C84.124,-52.307 85.948,-51.807 87.801,-51.04C89.661,-50.273 91.154,-49.227 92.281,-47.9C93.414,-46.58 94.344,-44.757 95.071,-42.43C95.791,-40.103 96.151,-37.34 96.151,-34.14C96.151,-27.66 94.318,-22.787 90.651,-19.52C86.984,-16.253 82.058,-14.62 75.871,-14.62ZM73.631,-27.1C73.924,-25.567 74.231,-24.65 74.551,-24.35C74.871,-24.05 75.298,-23.9 75.831,-23.9C76.364,-23.9 76.791,-24.05 77.111,-24.35C77.431,-24.65 77.731,-25.567 78.011,-27.1C78.291,-28.64 78.431,-30.573 78.431,-32.9C78.431,-35.22 78.378,-37.01 78.271,-38.27C78.164,-39.53 78.034,-40.5 77.881,-41.18C77.734,-41.867 77.531,-42.4 77.271,-42.78C76.891,-43.34 76.434,-43.62 75.901,-43.62C75.368,-43.62 74.931,-43.46 74.591,-43.14C74.244,-42.82 73.924,-41.88 73.631,-40.32C73.331,-38.76 73.181,-36.553 73.181,-33.7C73.181,-30.84 73.331,-28.64 73.631,-27.1ZM119.711,-14.62C116.511,-14.62 113.758,-14.9 111.451,-15.46C109.144,-16.013 107.054,-16.993 105.181,-18.4C101.294,-21.213 99.351,-26.46 99.351,-34.14C99.351,-40.967 101.338,-45.853 105.311,-48.8C109.018,-51.533 113.818,-52.9 119.711,-52.9C122.224,-52.9 124.378,-52.78 126.171,-52.54C127.964,-52.307 129.788,-51.807 131.641,-51.04C133.501,-50.273 134.994,-49.227 136.121,-47.9C137.254,-46.58 138.184,-44.757 138.911,-42.43C139.631,-40.103 139.991,-37.34 139.991,-34.14C139.991,-27.66 138.158,-22.787 134.491,-19.52C130.824,-16.253 125.898,-14.62 119.711,-14.62ZM117.471,-27.1C117.764,-25.567 118.071,-24.65 118.391,-24.35C118.711,-24.05 119.138,-23.9 119.671,-23.9C120.204,-23.9 120.631,-24.05 120.951,-24.35C121.271,-24.65 121.571,-25.567 121.851,-27.1C122.131,-28.64 122.271,-30.573 122.271,-32.9C122.271,-35.22 122.218,-37.01 122.111,-38.27C122.004,-39.53 121.874,-40.5 121.721,-41.18C121.574,-41.867 121.371,-42.4 121.111,-42.78C120.731,-43.34 120.274,-43.62 119.741,-43.62C119.208,-43.62 118.771,-43.46 118.431,-43.14C118.084,-42.82 117.764,-41.88 117.471,-40.32C117.171,-38.76 117.021,-36.553 117.021,-33.7C117.021,-30.84 117.171,-28.64 117.471,-27.1ZM155.871,-14.62C154.291,-14.62 152.818,-14.857 151.451,-15.33C150.084,-15.797 148.964,-16.373 148.091,-17.06C147.218,-17.74 146.461,-18.657 145.821,-19.81C145.181,-20.963 144.691,-22.06 144.351,-23.1C144.004,-24.147 143.748,-25.44 143.581,-26.98C143.321,-29.24 143.191,-31.82 143.191,-34.72C143.191,-40.653 144.281,-45.167 146.461,-48.26C148.634,-51.353 151.621,-52.9 155.421,-52.9C159.301,-52.9 162.118,-51.98 163.871,-50.14C164.251,-49.713 164.548,-49.203 164.761,-48.61L165.271,-48.61L164.511,-53.02L164.511,-61.02C164.511,-61.96 165.704,-62.88 168.091,-63.78C170.478,-64.673 173.058,-65.12 175.831,-65.12C178.738,-65.12 180.594,-64.567 181.401,-63.46C181.701,-63.033 181.851,-62.607 181.851,-62.18L181.851,-16.74C181.851,-16.267 180.668,-15.893 178.301,-15.62C175.934,-15.34 173.651,-15.2 171.451,-15.2C169.251,-15.2 167.844,-15.273 167.231,-15.42C166.611,-15.573 166.224,-15.733 166.071,-15.9C165.924,-16.073 165.831,-16.353 165.791,-16.74L165.271,-20.38L164.761,-20.38C164.381,-18.887 163.614,-17.63 162.461,-16.61C161.008,-15.283 158.811,-14.62 155.871,-14.62ZM163.031,-23.97C163.718,-23.97 164.231,-24.397 164.571,-25.25L164.571,-42.34C164.571,-42.767 164.348,-43.097 163.901,-43.33C163.454,-43.563 163.058,-43.68 162.711,-43.68C161.264,-43.68 160.541,-40.353 160.541,-33.7C160.541,-30.153 160.744,-27.647 161.151,-26.18C161.551,-24.707 162.178,-23.97 163.031,-23.97ZM233.631,-17.89C232.351,-16.95 230.568,-16.17 228.281,-15.55C226.001,-14.93 223.058,-14.62 219.451,-14.62C215.844,-14.62 212.421,-14.92 209.181,-15.52C205.934,-16.12 203.608,-16.78 202.201,-17.5C200.794,-18.227 200.091,-18.933 200.091,-19.62C200.091,-22.007 200.431,-24.49 201.111,-27.07C201.798,-29.65 202.611,-30.94 203.551,-30.94C203.718,-30.94 205.488,-30.367 208.861,-29.22C212.228,-28.067 214.764,-27.49 216.471,-27.49C218.178,-27.49 219.288,-27.67 219.801,-28.03C220.314,-28.397 220.571,-28.92 220.571,-29.6C220.571,-30.28 220.101,-30.887 219.161,-31.42C218.221,-31.953 217.048,-32.423 215.641,-32.83C214.234,-33.237 212.711,-33.823 211.071,-34.59C209.424,-35.357 207.898,-36.21 206.491,-37.15C205.084,-38.09 203.911,-39.423 202.971,-41.15C202.031,-42.877 201.561,-44.85 201.561,-47.07C201.561,-56.543 207.214,-61.28 218.521,-61.28C222.748,-61.28 226.398,-61.013 229.471,-60.48C232.538,-59.947 234.701,-59.35 235.961,-58.69C237.221,-58.03 237.851,-57.38 237.851,-56.74C237.851,-54.52 237.328,-52.13 236.281,-49.57C235.234,-47.01 234.221,-45.73 233.241,-45.73C233.074,-45.73 232.521,-45.92 231.581,-46.3C228.761,-47.54 226.424,-48.16 224.571,-48.16C222.718,-48.16 221.458,-47.99 220.791,-47.65C220.131,-47.31 219.801,-46.787 219.801,-46.08C219.801,-45.373 220.271,-44.797 221.211,-44.35C222.151,-43.903 223.314,-43.5 224.701,-43.14C226.088,-42.773 227.601,-42.217 229.241,-41.47C230.888,-40.723 232.414,-39.85 233.821,-38.85C235.228,-37.843 236.401,-36.423 237.341,-34.59C238.281,-32.757 238.751,-30.623 238.751,-28.19C238.751,-25.63 238.088,-23.307 236.761,-21.22C235.954,-19.94 234.911,-18.83 233.631,-17.89ZM267.741,-15.78C266.974,-15.053 265.224,-14.69 262.491,-14.69C259.758,-14.69 257.498,-14.87 255.711,-15.23C253.918,-15.597 252.211,-16.313 250.591,-17.38C247.471,-19.467 245.911,-23.817 245.911,-30.43L245.911,-40.42L242.711,-40.42C242.244,-40.42 241.841,-40.91 241.501,-41.89C241.161,-42.87 240.991,-44.213 240.991,-45.92C240.991,-47.627 241.258,-49.13 241.791,-50.43C242.324,-51.73 243.018,-52.38 243.871,-52.38L245.911,-52.38L245.911,-60.13C245.911,-61.45 247.204,-62.517 249.791,-63.33C252.371,-64.137 254.898,-64.54 257.371,-64.54C261.251,-64.54 263.191,-63.58 263.191,-61.66L263.191,-52.38L267.931,-52.38C269.038,-52.38 269.591,-50.78 269.591,-47.58C269.591,-45.493 269.348,-43.777 268.861,-42.43C268.368,-41.09 267.738,-40.42 266.971,-40.42L263.191,-40.42L263.191,-28.7C263.191,-27.553 263.684,-26.733 264.671,-26.24C265.651,-25.747 266.514,-25.5 267.261,-25.5C268.008,-25.5 268.464,-25.14 268.631,-24.42C268.804,-23.693 268.891,-22.603 268.891,-21.15C268.891,-18.29 268.508,-16.5 267.741,-15.78ZM293.151,-14.62C289.951,-14.62 287.198,-14.9 284.891,-15.46C282.584,-16.013 280.494,-16.993 278.621,-18.4C274.734,-21.213 272.791,-26.46 272.791,-34.14C272.791,-40.967 274.778,-45.853 278.751,-48.8C282.458,-51.533 287.258,-52.9 293.151,-52.9C295.664,-52.9 297.818,-52.78 299.611,-52.54C301.404,-52.307 303.228,-51.807 305.081,-51.04C306.941,-50.273 308.434,-49.227 309.561,-47.9C310.694,-46.58 311.624,-44.757 312.351,-42.43C313.071,-40.103 313.431,-37.34 313.431,-34.14C313.431,-27.66 311.598,-22.787 307.931,-19.52C304.264,-16.253 299.338,-14.62 293.151,-14.62ZM290.911,-27.1C291.204,-25.567 291.511,-24.65 291.831,-24.35C292.151,-24.05 292.578,-23.9 293.111,-23.9C293.644,-23.9 294.071,-24.05 294.391,-24.35C294.711,-24.65 295.011,-25.567 295.291,-27.1C295.571,-28.64 295.711,-30.573 295.711,-32.9C295.711,-35.22 295.658,-37.01 295.551,-38.27C295.444,-39.53 295.314,-40.5 295.161,-41.18C295.014,-41.867 294.811,-42.4 294.551,-42.78C294.171,-43.34 293.714,-43.62 293.181,-43.62C292.648,-43.62 292.211,-43.46 291.871,-43.14C291.524,-42.82 291.204,-41.88 290.911,-40.32C290.611,-38.76 290.461,-36.553 290.461,-33.7C290.461,-30.84 290.611,-28.64 290.911,-27.1ZM334.551,-35.42L334.551,-16.74C334.551,-16.267 333.348,-15.893 330.941,-15.62C328.528,-15.34 326.031,-15.2 323.451,-15.2C320.871,-15.2 319.198,-15.317 318.431,-15.55C317.658,-15.783 317.271,-16.18 317.271,-16.74L317.271,-48.29C317.271,-49.097 318.458,-49.97 320.831,-50.91C323.198,-51.85 325.778,-52.32 328.571,-52.32C331.364,-52.32 332.931,-51.553 333.271,-50.02L333.911,-47.07L334.361,-47.07C334.961,-48.69 336.391,-50.067 338.651,-51.2C340.911,-52.333 343.171,-52.9 345.431,-52.9C347.698,-52.9 349.288,-52.537 350.201,-51.81C351.121,-51.083 351.581,-50.153 351.581,-49.02C351.581,-47.893 351.494,-46.453 351.321,-44.7C351.154,-42.953 350.738,-41.057 350.071,-39.01C349.411,-36.963 348.548,-35.94 347.481,-35.94C347.054,-35.94 345.711,-36.26 343.451,-36.9C341.191,-37.54 339.324,-37.86 337.851,-37.86C336.378,-37.86 335.461,-37.647 335.101,-37.22C334.734,-36.793 334.551,-36.193 334.551,-35.42ZM373.721,-29.66L371.611,-29.66C371.611,-26.887 372.934,-25.5 375.581,-25.5C377.114,-25.5 379.118,-26.023 381.591,-27.07C384.071,-28.117 385.374,-28.64 385.501,-28.64C386.308,-28.64 387.374,-27.423 388.701,-24.99C390.021,-22.557 390.681,-20.767 390.681,-19.62C390.681,-17.953 388.974,-16.693 385.561,-15.84C382.148,-14.987 378.811,-14.56 375.551,-14.56C372.284,-14.56 369.551,-14.817 367.351,-15.33C365.158,-15.843 363.368,-16.493 361.981,-17.28C360.594,-18.067 359.378,-19.037 358.331,-20.19C357.284,-21.343 356.504,-22.443 355.991,-23.49C355.484,-24.537 355.081,-25.7 354.781,-26.98C354.354,-28.853 354.141,-30.793 354.141,-32.8C354.141,-40.567 356.168,-45.92 360.221,-48.86C362.228,-50.353 364.468,-51.4 366.941,-52C369.414,-52.6 372.338,-52.9 375.711,-52.9C386.504,-52.9 391.901,-49.143 391.901,-41.63C391.901,-33.65 385.841,-29.66 373.721,-29.66ZM371.481,-39.01L371.481,-34.78C372.721,-34.78 373.734,-35.273 374.521,-36.26C375.314,-37.24 375.711,-38.433 375.711,-39.84C375.711,-42.4 375.048,-43.68 373.721,-43.68C372.228,-43.68 371.481,-42.123 371.481,-39.01Z" style="fill:rgb(222,83,15);fill-rule:nonzero;"/>
        </g>
    </g>
</svg>
