<?xml version="1.0" encoding="UTF-8" standalone="no"?>
<!DOCTYPE svg PUBLIC "-//W3C//DTD SVG 1.1//EN" "http://www.w3.org/Graphics/SVG/1.1/DTD/svg11.dtd">
<svg width="100%" height="100%" viewBox="0 0 464 344" version="1.1" xmlns="http://www.w3.org/2000/svg" xmlns:xlink="http://www.w3.org/1999/xlink" xml:space="preserve" xmlns:serif="http://www.serif.com/" style="fill-rule:evenodd;clip-rule:evenodd;stroke-linejoin:round;stroke-miterlimit:2;">
    <g transform="matrix(1,0,0,1,-834.742,-2.2583)">
        <g transform="matrix(4.16667,0,0,4.16667,0,0)">
            <rect x="200.338" y="76.15" width="106.866" height="6.795" style="fill:rgb(37,37,37);fill-rule:nonzero;"/>
            <rect x="210.052" y="77.276" width="86.959" height="3.442" style="fill:rgb(71,72,72);fill-rule:nonzero;"/>
            <rect x="211.672" y="29.698" width="83.82" height="47.578" style="fill:rgb(252,181,45);fill-rule:nonzero;"/>
            <rect x="211.672" y="31.902" width="83.82" height="5.495" style="fill:rgb(204,147,43);fill-rule:nonzero;"/>
            <rect x="244.75" y="40.386" width="45.858" height="21.366" style="fill:white;fill-rule:nonzero;"/>
            <rect x="246.142" y="41.925" width="43.201" height="18.287" style="fill:rgb(71,160,201);fill-rule:nonzero;"/>
            <path d="M253.709,60.212L250.798,60.212L255.227,41.925L258.138,41.925L253.709,60.212Z" style="fill:rgb(110,179,212);fill-rule:nonzero;"/>
            <path d="M272.968,60.212L267.147,60.212L271.576,41.925L277.397,41.925L272.968,60.212Z" style="fill:rgb(110,179,212);fill-rule:nonzero;"/>
            <rect x="259.174" y="41.136" width="1.216" height="19.639" style="fill:white;fill-rule:nonzero;"/>
            <rect x="273.93" y="41.136" width="1.215" height="19.639" style="fill:white;fill-rule:nonzero;"/>
            <rect x="217.291" y="74.594" width="21.334" height="3.113" style="fill:rgb(102,103,103);fill-rule:nonzero;"/>
            <rect x="218.982" y="75.96" width="17.952" height="1.747" style="fill:rgb(169,168,168);fill-rule:nonzero;"/>
            <rect x="218.982" y="46.552" width="17.952" height="28.042" style="fill:white;fill-rule:nonzero;"/>
            <rect x="220.1" y="47.818" width="15.716" height="26.042" style="fill:rgb(71,160,201);fill-rule:nonzero;"/>
            <path d="M228.591,73.86L225.68,73.86L228.395,61.845L231.305,61.845L228.591,73.86ZM231.594,60.567L228.684,60.567L229.469,57.092L229.893,56.611L232.54,56.38L231.594,60.567ZM232.629,55.988L232.432,53.732L233.382,52.654L232.629,55.988Z" style="fill:rgb(110,179,212);fill-rule:nonzero;"/>
            <rect x="219.948" y="60.567" width="16.324" height="1.278" style="fill:white;fill-rule:nonzero;"/>
            <rect x="220.517" y="61.003" width="2.696" height="0.494" style="fill:rgb(77,78,78);fill-rule:nonzero;"/>
            <path d="M232.662,56.37L223.207,57.195L222.874,53.375L232.329,52.55L232.662,56.37Z" style="fill:rgb(255,206,116);fill-rule:nonzero;"/>
            <path d="M225.159,55.146C225.188,55.474 225.361,55.69 225.614,55.668C225.87,55.646 225.994,55.39 225.966,55.066C225.94,54.765 225.774,54.521 225.515,54.543C225.259,54.566 225.131,54.821 225.159,55.146ZM226.364,55.018C226.412,55.566 226.108,55.927 225.621,55.97C225.125,56.013 224.803,55.664 224.761,55.188C224.718,54.688 225.004,54.285 225.497,54.242C226.01,54.197 226.324,54.558 226.364,55.018Z" style="fill:rgb(239,63,64);fill-rule:nonzero;"/>
            <path d="M226.978,54.927L227.106,54.926C227.308,54.909 227.422,54.796 227.407,54.625C227.393,54.472 227.279,54.39 227.091,54.406L226.935,54.434L226.978,54.927ZM226.539,54.201C226.653,54.171 226.816,54.143 227.046,54.123C227.279,54.102 227.449,54.133 227.568,54.212C227.683,54.287 227.767,54.419 227.781,54.583C227.795,54.747 227.752,54.89 227.661,54.993C227.543,55.125 227.357,55.196 227.134,55.216L227.005,55.219L227.057,55.817L226.683,55.85L226.539,54.201Z" style="fill:rgb(239,63,64);fill-rule:nonzero;"/>
            <path d="M229.051,54.931L228.436,54.984L228.472,55.382L229.157,55.322L229.184,55.631L228.119,55.724L227.974,54.053L229.004,53.963L229.031,54.274L228.38,54.331L228.41,54.678L229.024,54.624L229.051,54.931Z" style="fill:rgb(239,63,64);fill-rule:nonzero;"/>
            <path d="M229.439,55.609L229.294,53.938L229.734,53.9L230.135,54.482C230.25,54.649 230.367,54.848 230.458,55.031L230.466,55.031C230.421,54.811 230.393,54.586 230.372,54.336L230.329,53.848L230.676,53.817L230.821,55.488L230.426,55.523L230.013,54.91C229.897,54.74 229.77,54.534 229.671,54.345L229.664,54.348C229.693,54.568 229.719,54.803 229.742,55.076L229.786,55.579L229.439,55.609Z" style="fill:rgb(239,63,64);fill-rule:nonzero;"/>
            <rect x="244.813" y="71.101" width="45.858" height="6.606" style="fill:rgb(102,103,103);fill-rule:nonzero;"/>
            <rect x="247.42" y="72.189" width="4.96" height="1.974" style="fill:rgb(74,74,75);fill-rule:nonzero;"/>
            <rect x="249.9" y="74.404" width="4.96" height="1.974" style="fill:rgb(74,74,75);fill-rule:nonzero;"/>
            <rect x="269.855" y="74.404" width="4.961" height="1.974" style="fill:rgb(74,74,75);fill-rule:nonzero;"/>
            <rect x="282.421" y="72.189" width="4.96" height="1.974" style="fill:rgb(74,74,75);fill-rule:nonzero;"/>
            <path d="M262.815,71.101L257.06,71.101C257.06,69.801 258.347,68.747 259.937,68.747C261.527,68.747 262.815,69.801 262.815,71.101Z" style="fill:rgb(26,139,67);fill-rule:nonzero;"/>
            <path d="M259.638,71.101L249.551,71.101C249.551,68.823 251.809,66.976 254.595,66.976C257.38,66.976 259.638,68.823 259.638,71.101Z" style="fill:rgb(29,177,75);fill-rule:nonzero;"/>
            <path d="M281.388,71.101L271.609,71.101C271.609,68.445 273.798,66.293 276.499,66.293C279.199,66.293 281.388,68.445 281.388,71.101Z" style="fill:rgb(29,177,75);fill-rule:nonzero;"/>
            <path d="M271.893,71.101L261.187,71.101C261.187,68.194 263.584,65.837 266.54,65.837C269.496,65.837 271.893,68.194 271.893,71.101Z" style="fill:rgb(111,190,68);fill-rule:nonzero;"/>
            <path d="M284.247,71.101L277.659,71.101C277.659,69.312 279.134,67.862 280.953,67.862C282.772,67.862 284.247,69.312 284.247,71.101Z" style="fill:rgb(74,131,60);fill-rule:nonzero;"/>
            <path d="M292.354,17.265L214.709,17.265L210.052,29.698L297.011,29.698L292.354,17.265Z" style="fill:rgb(239,60,60);fill-rule:nonzero;"/>
            <rect x="210.052" y="29.698" width="86.959" height="2.204" style="fill:rgb(144,40,40);fill-rule:nonzero;"/>
            <rect x="214.81" y="13.703" width="77.544" height="3.562" style="fill:rgb(144,40,40);fill-rule:nonzero;"/>
            <rect x="219.948" y="0.846" width="43.406" height="10.731" style="fill:rgb(249,243,141);fill-rule:nonzero;"/>
            <path d="M220.252,11.273L263.05,11.273L263.05,1.15L220.252,1.15L220.252,11.273ZM263.658,11.88L219.644,11.88L219.644,0.542L263.658,0.542L263.658,11.88Z" style="fill:rgb(180,50,50);fill-rule:nonzero;"/>
            <path d="M223.546,7.21C223.772,7.326 224.119,7.441 224.477,7.441C224.863,7.441 225.066,7.282 225.066,7.039C225.066,6.808 224.891,6.676 224.444,6.516C223.827,6.301 223.425,5.959 223.425,5.419C223.425,4.786 223.954,4.301 224.83,4.301C225.248,4.301 225.557,4.39 225.777,4.489L225.59,5.167C225.441,5.095 225.177,4.99 224.813,4.99C224.45,4.99 224.273,5.155 224.273,5.348C224.273,5.585 224.482,5.689 224.962,5.872C225.617,6.114 225.926,6.455 225.926,6.979C225.926,7.601 225.446,8.13 224.428,8.13C224.004,8.13 223.585,8.02 223.376,7.904L223.546,7.21Z" style="fill:rgb(180,50,50);fill-rule:nonzero;"/>
            <path d="M227.328,4.362L227.328,6.5C227.328,7.138 227.57,7.463 228,7.463C228.44,7.463 228.683,7.155 228.683,6.5L228.683,4.362L229.52,4.362L229.52,6.444C229.52,7.59 228.941,8.135 227.973,8.135C227.036,8.135 226.485,7.618 226.485,6.433L226.485,4.362L227.328,4.362Z" style="fill:rgb(180,50,50);fill-rule:nonzero;"/>
            <path d="M231.075,6.097C231.146,6.114 231.235,6.119 231.356,6.119C231.803,6.119 232.078,5.894 232.078,5.513C232.078,5.172 231.841,4.968 231.422,4.968C231.252,4.968 231.136,4.984 231.075,5.001L231.075,6.097ZM230.243,4.412C230.502,4.368 230.866,4.334 231.378,4.334C231.895,4.334 232.265,4.434 232.513,4.632C232.75,4.819 232.909,5.128 232.909,5.491C232.909,5.855 232.788,6.163 232.568,6.373C232.281,6.643 231.857,6.764 231.361,6.764C231.252,6.764 231.152,6.758 231.075,6.747L231.075,8.075L230.243,8.075L230.243,4.412Z" style="fill:rgb(180,50,50);fill-rule:nonzero;"/>
            <path d="M235.649,6.505L234.283,6.505L234.283,7.386L235.809,7.386L235.809,8.075L233.44,8.075L233.44,4.362L235.732,4.362L235.732,5.051L234.283,5.051L234.283,5.822L235.649,5.822L235.649,6.505Z" style="fill:rgb(180,50,50);fill-rule:nonzero;"/>
            <path d="M237.211,6.009L237.541,6.009C237.96,6.009 238.208,5.8 238.208,5.475C238.208,5.133 237.976,4.962 237.591,4.957C237.388,4.957 237.271,4.974 237.211,4.984L237.211,6.009ZM236.379,4.412C236.649,4.368 237.051,4.334 237.497,4.334C238.048,4.334 238.434,4.417 238.698,4.626C238.919,4.803 239.04,5.062 239.04,5.403C239.04,5.877 238.704,6.202 238.384,6.317L238.384,6.334C238.643,6.438 238.786,6.687 238.88,7.028C238.996,7.447 239.111,7.932 239.183,8.075L238.323,8.075C238.263,7.97 238.175,7.667 238.064,7.21C237.966,6.747 237.806,6.621 237.464,6.615L237.211,6.615L237.211,8.075L236.379,8.075L236.379,4.412Z" style="fill:rgb(180,50,50);fill-rule:nonzero;"/>
            <path d="M242.781,6.653C242.766,6.208 242.749,5.667 242.749,5.128L242.732,5.128C242.616,5.602 242.462,6.13 242.319,6.565L241.867,8.014L241.212,8.014L240.815,6.577C240.694,6.141 240.567,5.612 240.479,5.128L240.468,5.128C240.446,5.629 240.43,6.202 240.402,6.665L240.336,8.075L239.559,8.075L239.796,4.362L240.914,4.362L241.278,5.602C241.393,6.031 241.509,6.494 241.592,6.929L241.608,6.929C241.713,6.5 241.84,6.009 241.961,5.596L242.357,4.362L243.454,4.362L243.657,8.075L242.837,8.075L242.781,6.653Z" style="fill:rgb(180,50,50);fill-rule:nonzero;"/>
            <path d="M246.087,6.494L245.856,5.706C245.79,5.486 245.724,5.21 245.669,4.99L245.657,4.99C245.602,5.21 245.548,5.491 245.487,5.706L245.267,6.494L246.087,6.494ZM245.145,7.122L244.881,8.075L244.011,8.075L245.145,4.362L246.247,4.362L247.398,8.075L246.495,8.075L246.208,7.122L245.145,7.122Z" style="fill:rgb(180,50,50);fill-rule:nonzero;"/>
            <path d="M248.722,6.009L249.052,6.009C249.471,6.009 249.719,5.8 249.719,5.475C249.719,5.133 249.487,4.962 249.101,4.957C248.898,4.957 248.782,4.974 248.722,4.984L248.722,6.009ZM247.89,4.412C248.16,4.368 248.561,4.334 249.008,4.334C249.559,4.334 249.944,4.417 250.209,4.626C250.43,4.803 250.551,5.062 250.551,5.403C250.551,5.877 250.215,6.202 249.894,6.317L249.894,6.334C250.154,6.438 250.297,6.687 250.391,7.028C250.507,7.447 250.622,7.932 250.693,8.075L249.834,8.075C249.773,7.97 249.685,7.667 249.575,7.21C249.476,6.747 249.316,6.621 248.975,6.615L248.722,6.615L248.722,8.075L247.89,8.075L247.89,4.412Z" style="fill:rgb(180,50,50);fill-rule:nonzero;"/>
            <path d="M251.152,4.362L251.984,4.362L251.984,6.003L252.001,6.003C252.084,5.86 252.172,5.728 252.254,5.596L253.097,4.362L254.127,4.362L252.898,5.943L254.193,8.075L253.213,8.075L252.304,6.472L251.984,6.863L251.984,8.075L251.152,8.075L251.152,4.362Z" style="fill:rgb(180,50,50);fill-rule:nonzero;"/>
            <path d="M256.739,6.505L255.374,6.505L255.374,7.386L256.9,7.386L256.9,8.075L254.531,8.075L254.531,4.362L256.823,4.362L256.823,5.051L255.374,5.051L255.374,5.822L256.739,5.822L256.739,6.505Z" style="fill:rgb(180,50,50);fill-rule:nonzero;"/>
            <path d="M258.213,5.067L257.217,5.067L257.217,4.362L260.069,4.362L260.069,5.067L259.057,5.067L259.057,8.075L258.213,8.075L258.213,5.067Z" style="fill:rgb(180,50,50);fill-rule:nonzero;"/>
            <rect x="223.719" y="11.88" width="0.911" height="1.823" style="fill:rgb(3,4,4);fill-rule:nonzero;"/>
            <rect x="241.195" y="11.88" width="0.912" height="1.823" style="fill:rgb(3,4,4);fill-rule:nonzero;"/>
            <rect x="258.872" y="11.88" width="0.91" height="1.823" style="fill:rgb(3,4,4);fill-rule:nonzero;"/>
            <path d="M211.672,77.276L211.672,49.68L219.67,40.731L238.429,46.93L236.934,48.626L236.934,46.552L218.982,46.552L218.982,68.986L211.672,77.276Z" style="fill:rgb(204,147,43);fill-rule:nonzero;"/>
            <path d="M218.982,68.986L218.982,46.552L236.934,46.552L236.934,48.626L235.816,49.893L235.816,47.818L220.1,47.818L220.1,60.567L219.948,60.567L219.948,61.845L220.1,61.845L220.1,67.718L218.982,68.986Z" style="fill:rgb(205,204,204);fill-rule:nonzero;"/>
            <path d="M220.1,67.718L220.1,61.845L225.278,61.845L220.1,67.718ZM226.405,60.567L220.1,60.567L220.1,47.818L235.816,47.818L235.816,49.893L233.382,52.654L234.475,47.818L231.564,47.818L230.458,52.713L222.874,53.375L223.207,57.195L229.571,56.639L229.469,57.092L226.405,60.567Z" style="fill:rgb(59,129,162);fill-rule:nonzero;"/>
            <path d="M229.469,57.092L229.571,56.639L229.893,56.611L229.469,57.092ZM232.432,53.732L232.329,52.55L230.458,52.713L231.564,47.818L234.475,47.818L233.382,52.654L232.432,53.732Z" style="fill:rgb(87,143,170);fill-rule:nonzero;"/>
            <path d="M225.278,61.845L219.948,61.845L219.948,60.567L226.405,60.567L225.278,61.845ZM220.517,61.003L220.517,61.497L223.213,61.497L223.213,61.003L220.517,61.003Z" style="fill:rgb(205,204,204);fill-rule:nonzero;"/>
            <rect x="220.517" y="61.003" width="2.696" height="0.494" style="fill:rgb(62,62,62);fill-rule:nonzero;"/>
            <path d="M223.207,57.195L222.874,53.375L230.458,52.713L232.329,52.55L232.432,53.732L229.893,56.611L229.571,56.639L223.207,57.195ZM225.582,54.238C225.554,54.238 225.526,54.24 225.497,54.242C225.004,54.285 224.718,54.688 224.761,55.188C224.8,55.637 225.09,55.974 225.54,55.974C225.566,55.974 225.593,55.973 225.621,55.97C226.108,55.927 226.412,55.566 226.364,55.018C226.326,54.584 226.044,54.238 225.582,54.238ZM227.179,54.116C227.137,54.116 227.093,54.118 227.046,54.123C226.816,54.143 226.653,54.171 226.539,54.201L226.683,55.85L227.057,55.817L227.005,55.219L227.134,55.216C227.357,55.196 227.543,55.125 227.661,54.993C227.752,54.89 227.795,54.747 227.781,54.583C227.767,54.419 227.683,54.287 227.568,54.212C227.473,54.149 227.346,54.116 227.179,54.116ZM229.004,53.963L227.974,54.053L228.119,55.724L229.184,55.631L229.157,55.322L228.472,55.382L228.436,54.984L229.051,54.931L229.024,54.624L228.41,54.678L228.38,54.331L229.031,54.274L229.004,53.963ZM229.734,53.9L229.294,53.938L229.439,55.609L229.786,55.579L229.742,55.076C229.719,54.803 229.693,54.568 229.664,54.348L229.671,54.345C229.77,54.534 229.897,54.74 230.013,54.91L230.426,55.523L230.821,55.488L230.676,53.817L230.329,53.848L230.372,54.336C230.393,54.586 230.421,54.811 230.466,55.031L230.458,55.031C230.367,54.848 230.25,54.649 230.135,54.482L229.734,53.9ZM225.579,55.67C225.345,55.67 225.187,55.458 225.159,55.146C225.131,54.821 225.259,54.566 225.515,54.543C225.526,54.542 225.537,54.542 225.547,54.542C225.788,54.542 225.941,54.778 225.966,55.066C225.994,55.39 225.87,55.646 225.614,55.668C225.602,55.669 225.591,55.67 225.579,55.67ZM226.978,54.927L226.935,54.434L227.091,54.406C227.106,54.404 227.121,54.404 227.136,54.404C227.298,54.404 227.395,54.485 227.407,54.625C227.422,54.796 227.308,54.909 227.106,54.926L226.978,54.927Z" style="fill:rgb(205,166,93);fill-rule:nonzero;"/>
            <path d="M225.54,55.974C225.09,55.974 224.8,55.637 224.761,55.188C224.718,54.688 225.004,54.285 225.497,54.242C225.526,54.24 225.554,54.238 225.582,54.238C226.044,54.238 226.326,54.584 226.364,55.018C226.412,55.566 226.108,55.927 225.621,55.97C225.593,55.973 225.566,55.974 225.54,55.974ZM225.547,54.542C225.537,54.542 225.526,54.542 225.515,54.543C225.259,54.566 225.131,54.821 225.159,55.146C225.187,55.458 225.345,55.67 225.579,55.67C225.591,55.67 225.602,55.669 225.614,55.668C225.87,55.646 225.994,55.39 225.966,55.066C225.941,54.778 225.788,54.542 225.547,54.542Z" style="fill:rgb(206,45,46);fill-rule:nonzero;"/>
            <path d="M226.683,55.85L226.539,54.201C226.653,54.171 226.816,54.143 227.046,54.123C227.093,54.118 227.137,54.116 227.179,54.116C227.346,54.116 227.473,54.149 227.568,54.212C227.683,54.287 227.767,54.419 227.781,54.583C227.795,54.747 227.752,54.89 227.661,54.993C227.543,55.125 227.357,55.196 227.134,55.216L227.005,55.219L227.057,55.817L226.683,55.85ZM227.136,54.404C227.121,54.404 227.106,54.404 227.091,54.406L226.935,54.434L226.978,54.927L227.106,54.926C227.308,54.909 227.422,54.796 227.407,54.625C227.395,54.485 227.298,54.404 227.136,54.404Z" style="fill:rgb(206,45,46);fill-rule:nonzero;"/>
            <path d="M228.119,55.724L227.974,54.053L229.004,53.963L229.031,54.274L228.38,54.331L228.41,54.678L229.024,54.624L229.051,54.931L228.436,54.984L228.472,55.382L229.157,55.322L229.184,55.631L228.119,55.724Z" style="fill:rgb(206,45,46);fill-rule:nonzero;"/>
            <path d="M229.439,55.609L229.294,53.938L229.734,53.9L230.135,54.482C230.25,54.649 230.367,54.848 230.458,55.031L230.466,55.031C230.421,54.811 230.393,54.586 230.372,54.336L230.329,53.848L230.676,53.817L230.821,55.488L230.426,55.523L230.013,54.91C229.897,54.74 229.77,54.534 229.671,54.345L229.664,54.348C229.693,54.568 229.719,54.803 229.742,55.076L229.786,55.579L229.439,55.609Z" style="fill:rgb(206,45,46);fill-rule:nonzero;"/>
            <path d="M238.429,46.93L217.578,46.93C217.578,41.255 222.245,36.655 228.003,36.655C233.761,36.655 238.429,41.255 238.429,46.93Z" style="fill:rgb(239,60,60);fill-rule:nonzero;"/>
            <rect x="295.492" y="39.896" width="15.982" height="0.836" style="fill:rgb(102,64,49);fill-rule:nonzero;"/>
            <path d="M306.233,51.299L300.734,51.299C298.395,51.299 296.498,49.403 296.498,47.064L296.498,46.371C296.498,44.032 298.395,42.136 300.734,42.136L306.233,42.136C308.572,42.136 310.468,44.032 310.468,46.371L310.468,47.064C310.468,49.403 308.572,51.299 306.233,51.299Z" style="fill:white;fill-rule:nonzero;"/>
            <path d="M301.037,50.996L305.93,50.996C308.269,50.996 310.165,49.1 310.165,46.761L310.165,46.675C310.165,44.336 308.269,42.44 305.93,42.44L301.037,42.44C298.698,42.44 296.802,44.336 296.802,46.675L296.802,46.761C296.802,49.1 298.698,50.996 301.037,50.996ZM306.537,51.603L300.43,51.603C298.091,51.603 296.195,49.707 296.195,47.368L296.195,46.068C296.195,43.729 298.091,41.832 300.43,41.832L306.537,41.832C308.876,41.832 310.772,43.729 310.772,46.068L310.772,47.368C310.772,49.707 308.876,51.603 306.537,51.603Z" style="fill:rgb(29,177,75);fill-rule:nonzero;"/>
            <path d="M299.113,49.594L299.113,48.811L299.829,48.164C301.038,47.082 301.625,46.461 301.642,45.814C301.642,45.363 301.37,45.005 300.731,45.005C300.255,45.005 299.837,45.243 299.548,45.465L299.182,44.537C299.599,44.222 300.246,43.966 300.995,43.966C302.247,43.966 302.936,44.698 302.936,45.703C302.936,46.631 302.264,47.372 301.464,48.087L300.952,48.513L300.952,48.53L303.039,48.53L303.039,49.594L299.113,49.594Z" style="fill:rgb(180,50,50);fill-rule:nonzero;"/>
            <path d="M306.132,47.304L306.132,46.078C306.132,45.746 306.148,45.405 306.174,45.047L306.14,45.047C305.961,45.405 305.816,45.728 305.629,46.078L304.889,47.287L304.889,47.304L306.132,47.304ZM306.132,49.594L306.132,48.274L303.68,48.274L303.68,47.432L305.773,44.06L307.357,44.06L307.357,47.304L308.021,47.304L308.021,48.274L307.357,48.274L307.357,49.594L306.132,49.594Z" style="fill:rgb(180,50,50);fill-rule:nonzero;"/>
            <path d="M298.529,40.732L297.77,40.732L297.77,43.347L298.529,42.755L298.529,40.732Z" style="fill:rgb(64,40,29);fill-rule:nonzero;"/>
            <path d="M309.424,40.732L308.665,40.732L308.665,42.959L309.424,43.589L309.424,40.732Z" style="fill:rgb(64,40,29);fill-rule:nonzero;"/>
            <rect x="201.612" y="42.215" width="10.06" height="0.797" style="fill:rgb(18,18,18);fill-rule:nonzero;"/>
            <rect x="206.455" y="43.012" width="0.374" height="1.537" style="fill:rgb(18,18,18);fill-rule:nonzero;"/>
            <path d="M204.84,46.281C204.84,45.295 205.639,44.497 206.624,44.497L206.66,44.497C207.646,44.497 208.444,45.295 208.444,46.281L204.84,46.281Z" style="fill:rgb(18,18,18);fill-rule:nonzero;"/>
            <path d="M208.444,49.742C208.444,50.727 207.646,51.526 206.66,51.526L206.624,51.526C205.639,51.526 204.84,50.727 204.84,49.742L208.444,49.742Z" style="fill:rgb(18,18,18);fill-rule:nonzero;"/>
            <rect x="204.977" y="46.281" width="3.33" height="3.461" style="fill:rgb(245,237,83);fill-rule:nonzero;"/>
            <rect x="204.977" y="46.281" width="0.16" height="3.461" style="fill:rgb(18,18,18);fill-rule:nonzero;"/>
            <rect x="208.148" y="46.281" width="0.159" height="3.461" style="fill:rgb(18,18,18);fill-rule:nonzero;"/>
            <rect x="206.563" y="46.281" width="0.159" height="3.461" style="fill:rgb(18,18,18);fill-rule:nonzero;"/>
        </g>
    </g>
</svg>
